<svg xmlns="http://www.w3.org/2000/svg" viewBox="0 0 64 64">
  <defs><clipPath id="c"><circle cx="32" cy="32" r="17"/></clipPath></defs>
  <circle cx="32" cy="32" r="17" fill="#fff"/>
  <g clip-path="url(#c)" stroke="#111" stroke-width="1.8" stroke-linejoin="round">
    <polygon points="32,25.5 38.2,30 35.8,37.3 28.2,37.3 25.8,30" fill="#111"/>
    <polygon points="32,12 39,15 37,19.5 27,19.5 25,15" fill="#111"/>
    <polygon points="51,28 52,36 48,40 43,34.5 45,27" fill="#111"/>
    <polygon points="44,49 38,53 33,52 34.5,45 41,43" fill="#111"/>
    <polygon points="20,49 26,53 31,52 29.5,45 23,43" fill="#111"/>
    <polygon points="13,28 12,36 16,40 21,34.5 19,27" fill="#111"/>
    <g fill="none">
      <line x1="32" y1="25.5" x2="32" y2="19.5"/>
      <line x1="38.2" y1="30" x2="45" y2="27.5"/>
      <line x1="35.8" y1="37.3" x2="40" y2="43.5"/>
      <line x1="28.2" y1="37.3" x2="24" y2="43.5"/>
      <line x1="25.8" y1="30" x2="19" y2="27.5"/>
    </g>
  </g>
  <circle cx="32" cy="32" r="17" fill="none" stroke="#111" stroke-width="3"/>
</svg>
